<svg xmlns="http://www.w3.org/2000/svg" width="880" height="430" viewBox="0 0 880 430" role="img">
  <title>Combined model chart: Claude token share and Cursor code-edit share</title>
  <rect width="880" height="430" fill="#070d08"/>
  <g font-family="ui-monospace, Cascadia Code, Consolas, monospace">
    <text x="24" y="28" fill="#D97757" font-size="13">Claude · token share · May–Sep 2026</text>
    <g font-size="14" fill="#e8ffe8">
      <text x="24" y="58">Opus 5</text>
      <text x="24" y="92">Opus 4.8</text>
      <text x="24" y="126">Fable 5</text>
      <text x="24" y="160">Fable 5.1</text>
      <text x="24" y="194">Sonnet 5</text>
      <text x="24" y="228">Opus 4.7</text>
    </g>
    <g fill="#122016">
      <rect x="150" y="42" width="480" height="20"/>
      <rect x="150" y="76" width="480" height="20"/>
      <rect x="150" y="110" width="480" height="20"/>
      <rect x="150" y="144" width="480" height="20"/>
      <rect x="150" y="178" width="480" height="20"/>
      <rect x="150" y="212" width="480" height="20"/>
    </g>
    <rect x="150" y="42" width="198" height="20" fill="#D97757"/>
    <rect x="150" y="76" width="111" height="20" fill="#C46A4C"/>
    <rect x="150" y="110" width="77" height="20" fill="#E8B86D"/>
    <rect x="150" y="144" width="77" height="20" fill="#C4A24A"/>
    <rect x="150" y="178" width="10" height="20" fill="#FFB000"/>
    <rect x="150" y="212" width="5" height="20" fill="#8a7340"/>
    <g fill="#e8ffe8" font-size="13">
      <text x="356" y="57">41%</text>
      <text x="268" y="91">23%</text>
      <text x="234" y="125">16%</text>
      <text x="234" y="159">16%</text>
      <text x="168" y="193">2%</text>
      <text x="162" y="227">&lt;1%</text>
    </g>

    <text x="24" y="268" fill="#3dff6a" font-size="13">Cursor · code edits · 24 Aug–23 Sep 2026</text>
    <g font-size="14" fill="#e8ffe8">
      <text x="24" y="298">Composer 2.5</text>
      <text x="24" y="332">Grok 4.6</text>
      <text x="24" y="366">Grok 4.7</text>
      <text x="24" y="400">GPT-5.6 Sol</text>
    </g>
    <g fill="#122016">
      <rect x="170" y="282" width="480" height="20"/>
      <rect x="170" y="316" width="480" height="20"/>
      <rect x="170" y="350" width="480" height="20"/>
      <rect x="170" y="384" width="480" height="20"/>
    </g>
    <rect x="170" y="282" width="213" height="20" fill="#3dff6a"/>
    <rect x="170" y="316" width="185" height="20" fill="#1f9d4a"/>
    <rect x="170" y="350" width="80" height="20" fill="#D4B45A"/>
    <rect x="170" y="384" width="4" height="20" fill="#FFB000"/>
    <g fill="#e8ffe8" font-size="13">
      <text x="392" y="297">44%</text>
      <text x="364" y="331">39%</text>
      <text x="258" y="365">17%</text>
      <text x="182" y="399">&lt;1%</text>
    </g>
  </g>
</svg>
